<svg width="134" height="30" viewBox="0 0 134 30" fill="none" xmlns="http://www.w3.org/2000/svg">
<path d="M38.7684 17.567C38.7638 17.6522 38.7547 17.7374 38.7411 17.8226C38.732 17.875 38.7206 17.9275 38.7093 17.9799C38.7002 18.0214 38.6888 18.0607 38.6752 18.1022C38.6638 18.1481 38.6479 18.1918 38.632 18.2355C38.6183 18.277 38.6024 18.3207 38.5842 18.3622C38.566 18.4081 38.5456 18.454 38.5228 18.4999C37.9066 19.7713 36.3354 20.3197 35.0143 19.7276C33.7114 19.1443 33.1362 17.6653 33.7137 16.4047C33.7205 16.3873 33.7274 16.372 33.7365 16.3545C33.7433 16.3414 33.7478 16.3283 33.7569 16.3174C34.0912 15.651 34.6915 15.1901 35.3781 14.9956C35.4259 14.9825 35.4759 14.9694 35.5259 14.9585C35.576 14.9476 35.626 14.9388 35.676 14.9301C35.7215 14.9213 35.7647 14.917 35.8102 14.9104C35.8693 14.9039 35.9284 14.8995 35.9875 14.8973C36.083 14.8908 36.1763 14.8908 36.2718 14.8951C36.3582 14.8995 36.4446 14.9061 36.531 14.9214C36.5901 14.9301 36.6469 14.941 36.706 14.9541C36.8811 14.9934 37.0539 15.0524 37.2222 15.1267C38.0158 15.4828 38.5501 16.1644 38.7184 16.9291C38.7297 16.9793 38.7388 17.0296 38.7457 17.082C38.7707 17.2415 38.7775 17.4031 38.7684 17.567Z" fill="white"/>
<path d="M47.966 22.7403C45.3033 28.2282 39.0117 31.0028 33.1066 29.6636C32.2517 29.4713 31.4035 29.1917 30.5782 28.8203C29.7641 28.4554 29.0092 28.0229 28.3134 27.527L29.5936 24.8879H29.5959L30.6259 22.7644L33.2249 17.4053C33.218 18.4649 33.8411 19.4808 34.9029 19.957C35.9648 20.4333 37.1745 20.2389 38.0112 19.5529L35.4191 24.8944C38.5956 25.1631 41.7539 23.529 43.1773 20.595C44.603 17.6631 43.8754 14.2834 41.6175 12.1206C41.5265 12.031 41.431 11.9436 41.3333 11.8628C41.2037 9.41816 40.4124 7.14173 39.1254 5.19299C39.9758 5.38743 40.8148 5.66707 41.6357 6.0341C42.4633 6.40331 43.2296 6.84679 43.9345 7.34927C48.7982 10.836 50.6286 17.2502 47.966 22.7403Z" fill="white"/>
<path d="M24.7208 11.2359C25.187 10.515 26.0169 10.0387 26.9628 10.0387C27.363 10.0387 27.7427 10.1239 28.0838 10.2769C28.0929 10.2834 28.1043 10.2878 28.1156 10.2922C28.9956 10.7029 29.6027 11.5724 29.6027 12.5752C29.6027 12.9269 29.5299 13.259 29.3958 13.5626C29.3776 13.6063 29.3571 13.6456 29.3367 13.6872L29.3003 13.7636L29.2957 13.7724L28.8069 14.7817V14.7882L28.8 14.797L26.2534 20.0446L25.9032 20.7633L24.9982 22.6225L24.8754 22.8781C24.7936 23.0376 24.7117 23.1971 24.6231 23.35C24.614 23.3653 24.6049 23.3828 24.5935 23.398C24.5639 23.4505 24.5367 23.5029 24.5071 23.5532C24.2661 23.9683 24 24.3702 23.709 24.7547C23.5134 25.0169 23.3065 25.2703 23.0905 25.515C23.0541 25.5587 23.0177 25.6002 22.9791 25.6417C22.9268 25.7029 22.8722 25.7597 22.8177 25.8187C22.7722 25.8646 22.729 25.9104 22.6835 25.9563C20.296 28.4403 16.8716 29.998 13.0812 29.998C11.178 29.998 9.37036 29.6047 7.73549 28.9013L7.41261 28.7571C3.03099 26.7231 0 22.4084 0 17.4273C0 15.5987 0.409285 13.8619 1.14145 12.2911L1.29152 11.9809C3.04008 8.50073 6.40759 5.90752 10.4504 5.1123C11.2303 4.95718 12.0353 4.87198 12.8584 4.85887C12.9334 4.85887 13.0062 4.85887 13.0812 4.85887C13.2222 4.85887 13.3586 4.85887 13.4973 4.86543C13.9816 4.88072 14.4614 4.92004 14.9344 4.98558C15.33 5.03802 15.7188 5.11011 16.1031 5.1975C16.1395 5.20405 16.1736 5.21279 16.21 5.22153C16.21 5.22153 16.2213 5.2259 16.2304 5.22808C16.2623 5.23682 16.2964 5.24337 16.3282 5.2543C16.3487 5.2259 16.3669 5.20187 16.3873 5.17347C16.4055 5.14725 16.426 5.12322 16.4464 5.09482C16.451 5.08826 16.4555 5.08171 16.4601 5.07515C16.5419 4.97029 16.6238 4.86542 16.7079 4.76493C16.7761 4.68191 16.8444 4.60545 16.9126 4.52462C16.9217 4.51151 16.9353 4.4984 16.9467 4.48529C17.0103 4.4132 17.074 4.3411 17.14 4.27119C17.1581 4.24935 17.1786 4.2275 17.1991 4.20784C17.2559 4.14448 17.3173 4.08112 17.3787 4.01777C17.4788 3.91509 17.5788 3.81241 17.6811 3.71629C17.7562 3.64201 17.8335 3.56991 17.9108 3.5C18.029 3.39077 18.1495 3.28372 18.27 3.18104C18.3337 3.12642 18.3951 3.07399 18.461 3.02156C18.6634 2.85334 18.8726 2.69385 19.0886 2.53656C19.1864 2.46665 19.2842 2.39674 19.3842 2.32683C19.4706 2.26784 19.557 2.21104 19.6434 2.15424C19.6912 2.12147 19.7435 2.0887 19.7935 2.05811C19.864 2.01223 19.9367 1.96854 20.0072 1.92485C20.014 1.92048 20.0186 1.91611 20.0254 1.91611C20.1118 1.86368 20.1982 1.81124 20.2846 1.761C20.4074 1.69109 20.5348 1.62118 20.6598 1.55345C20.7644 1.49884 20.8667 1.4464 20.9736 1.39397C20.9827 1.3896 20.9918 1.38523 21.0009 1.38086C21.2214 1.27163 21.4465 1.16895 21.6762 1.07282C21.7922 1.02476 21.9081 0.974515 22.0264 0.930821C22.3652 0.795371 22.7131 0.677397 23.0655 0.570347C23.0769 0.570347 23.0905 0.563795 23.0996 0.56161C23.2156 0.52884 23.3315 0.496071 23.4498 0.4633C23.4657 0.456746 23.4862 0.45456 23.5043 0.448006C23.6021 0.42179 23.6999 0.399943 23.7999 0.375911C23.8272 0.367173 23.8545 0.362805 23.8841 0.354066C23.9955 0.32785 24.1069 0.306003 24.2183 0.281972C24.3434 0.255756 24.473 0.231724 24.6003 0.209877C24.7254 0.185845 24.855 0.166181 24.9846 0.146519C25.1256 0.124673 25.2665 0.107195 25.4121 0.0919024C25.528 0.0787943 25.6463 0.0656888 25.7645 0.0569501C25.8873 0.0460267 26.0146 0.0351022 26.1397 0.0285482C26.1488 0.0285482 26.1556 0.0285482 26.167 0.0285482C26.2898 0.0198095 26.4125 0.0154397 26.5376 0.0110704H26.5672C26.6968 0.00670101 26.8264 0.0045166 26.9583 0.0045166H26.9673C27.0879 0.0045166 27.2084 0.00451634 27.3289 0.0110704C27.4494 0.0110704 27.5676 0.0198085 27.6881 0.0241779C27.7791 0.0285473 27.8723 0.032917 27.9633 0.0416557C28.0292 0.0460251 28.0997 0.0503948 28.1656 0.0591336C28.2498 0.0656876 28.3316 0.0722418 28.4135 0.0831651C28.5272 0.0940885 28.6386 0.109382 28.75 0.124675C28.7614 0.124675 28.775 0.124672 28.7887 0.129042C28.8751 0.139965 28.9615 0.153076 29.0456 0.166184C29.1206 0.177107 29.1934 0.190215 29.2684 0.203323C29.3685 0.220801 29.4685 0.238278 29.5686 0.25794C29.5959 0.262309 29.6209 0.266677 29.6459 0.273231C29.7277 0.288524 29.8073 0.306 29.8869 0.323478C29.9074 0.327847 29.9301 0.332219 29.9483 0.336589C30.0393 0.358435 30.1302 0.380281 30.2212 0.399943C30.3258 0.426159 30.4304 0.452376 30.535 0.482962C30.7419 0.537579 30.9442 0.600933 31.1489 0.666474C31.1966 0.681767 31.2467 0.69706 31.2944 0.714537C31.3649 0.738568 31.4354 0.760416 31.5036 0.786632C31.6082 0.823771 31.7151 0.863094 31.8174 0.904603C31.9038 0.937373 31.9879 0.970145 32.072 1.0051C32.1425 1.0335 32.2153 1.06409 32.2858 1.09467C32.3153 1.1056 32.3449 1.1187 32.3722 1.13181C32.404 1.14492 32.4359 1.16021 32.4654 1.17332C32.4768 1.17987 32.4927 1.18424 32.5086 1.19298C32.5223 1.19954 32.5382 1.20609 32.5518 1.21264C32.6155 1.24104 32.6769 1.26944 32.7383 1.30003C32.7951 1.32625 32.852 1.35246 32.9065 1.38305C33.0953 1.4748 33.2794 1.57093 33.4636 1.67361C33.55 1.71949 33.6387 1.77192 33.7251 1.82217C33.832 1.88552 33.9411 1.94888 34.0457 2.01442C34.2072 2.11492 34.3686 2.21978 34.5255 2.32683C34.7006 2.4448 34.8711 2.56933 35.0371 2.69604C35.1167 2.75721 35.1963 2.8162 35.2736 2.87955C35.3531 2.94072 35.4282 3.0019 35.5055 3.06744C35.5874 3.13298 35.6669 3.20507 35.7488 3.27498C35.9057 3.41043 36.0558 3.54807 36.2036 3.69225C36.2763 3.76216 36.3491 3.83426 36.4218 3.90854C36.4946 3.98063 36.5651 4.05491 36.6356 4.12919C36.7788 4.27775 36.9153 4.43067 37.0471 4.58579C37.1108 4.66007 37.1722 4.73434 37.2359 4.81081C37.2404 4.81518 37.245 4.81955 37.2472 4.8261C38.6524 6.54763 39.6029 8.62307 39.9212 10.893C39.7507 10.8012 39.5779 10.716 39.3983 10.6352C38.566 10.2616 37.6997 10.0431 36.8357 9.96665C36.2559 9.91422 35.676 9.92514 35.1076 9.99724C34.8484 10.0278 34.5892 10.0759 34.3345 10.1327C34.3186 10.0868 34.3027 10.0453 34.2845 10.0016C34.264 9.9448 34.2413 9.888 34.2185 9.8312C34.2071 9.79843 34.1912 9.76347 34.1753 9.7307C34.1435 9.65206 34.1094 9.57559 34.0707 9.49694C34.0639 9.47947 34.0571 9.46417 34.0457 9.4467C34.0184 9.38334 33.9843 9.31999 33.9525 9.25663C33.9229 9.19327 33.8865 9.1321 33.8524 9.07093C33.832 9.02724 33.807 8.98791 33.7842 8.94859C33.766 8.91582 33.7456 8.88305 33.7251 8.84809C33.6842 8.776 33.6387 8.70609 33.5932 8.63618C33.5728 8.60341 33.5523 8.57282 33.5296 8.54005C33.4932 8.48325 33.4568 8.42863 33.4159 8.3762C33.3863 8.33032 33.3522 8.28663 33.3181 8.24075C33.2089 8.09001 33.093 7.94364 32.9657 7.80163C32.9315 7.75794 32.8952 7.71643 32.8542 7.67274C32.8065 7.61812 32.7565 7.56569 32.7064 7.51325C32.6746 7.4783 32.6405 7.44335 32.6018 7.40839C32.5609 7.3647 32.5154 7.321 32.4722 7.2795C32.429 7.2358 32.3858 7.19429 32.3381 7.15497C32.2517 7.07195 32.163 6.99767 32.072 6.92121C31.997 6.85785 31.922 6.79668 31.8424 6.73988C31.7719 6.68089 31.6991 6.62627 31.6241 6.57384C31.6014 6.55636 31.5809 6.54107 31.5582 6.52797C31.4786 6.46898 31.3967 6.41436 31.3171 6.36193C31.3103 6.35756 31.308 6.35319 31.3035 6.35319C31.2035 6.28984 31.1034 6.22866 31.0011 6.16749C30.926 6.12161 30.8487 6.08011 30.7692 6.0386C30.7419 6.0233 30.7169 6.00801 30.6873 5.99272C30.6941 5.98835 30.6987 5.98616 30.7078 5.98398L30.1666 5.74148C29.8778 5.61695 29.58 5.50772 29.273 5.41597C29.223 5.40067 29.1707 5.38538 29.1206 5.37227C29.0388 5.34824 28.9592 5.32639 28.8773 5.30891C28.8251 5.29581 28.7705 5.28051 28.7159 5.27178C28.6636 5.25867 28.609 5.24774 28.5545 5.23682C28.3544 5.19531 28.1497 5.16254 27.9428 5.13851C27.8791 5.12977 27.8155 5.12322 27.7518 5.11666C27.6995 5.11011 27.6472 5.10792 27.5949 5.10355C27.5244 5.097 27.4539 5.09263 27.3835 5.09045C27.2402 5.08171 27.0992 5.07952 26.956 5.07952C26.6081 5.07952 26.2647 5.10137 25.9282 5.14288C25.7463 5.16691 25.5621 5.19531 25.3848 5.23027C25.1801 5.27178 24.9778 5.31984 24.7799 5.37446C24.6685 5.40504 24.5571 5.43999 24.4457 5.47495C24.3229 5.51646 24.2047 5.55797 24.0842 5.60166C23.9705 5.64754 23.8591 5.69123 23.7476 5.7393C23.684 5.7677 23.6249 5.79391 23.5635 5.82232C23.4543 5.87256 23.3452 5.92499 23.2406 5.9818C23.236 5.9818 23.2315 5.98616 23.2269 5.99053C23.1178 6.04952 23.0087 6.10851 22.8995 6.17186C22.7426 6.26362 22.5903 6.36193 22.4425 6.46024C22.0787 6.70929 21.7376 6.98675 21.4238 7.2926C21.3374 7.37562 21.251 7.46519 21.1669 7.55258C21.1123 7.61375 21.0555 7.67055 21.0032 7.73391C20.8872 7.86499 20.7758 8.00044 20.6689 8.14244C20.628 8.19488 20.587 8.24949 20.5484 8.30411C20.4347 8.45922 20.3278 8.62089 20.2278 8.78474C20.1778 8.86776 20.1277 8.94859 20.0823 9.03379C20.0345 9.11681 19.989 9.20201 19.9458 9.28722L19.9254 9.32654L19.8412 9.49913L19.8117 9.56248L18.5747 12.1098L18.3746 12.5227L15.5142 18.4148L15.4482 18.5502C15.2391 18.9544 14.923 19.2996 14.5296 19.5465C14.1158 19.8108 13.6156 19.9659 13.0789 19.9659C11.6214 19.9659 10.439 18.8299 10.439 17.4295C10.439 17.08 10.5118 16.7435 10.646 16.442C10.6664 16.3962 10.6869 16.3525 10.7096 16.3088L12.5651 12.4834L13.7884 9.96228C13.5542 9.94043 13.3177 9.93169 13.0789 9.93169C12.9948 9.93169 12.9107 9.93169 12.8265 9.93825C12.1558 9.95791 11.5077 10.0584 10.8915 10.2332C8.75643 10.8318 6.99878 12.2868 6.04833 14.1831L5.96192 14.3557C5.5208 15.2951 5.27523 16.335 5.27523 17.4295C5.27523 20.464 7.16477 23.0856 9.8706 24.2632C10.8506 24.6892 11.9352 24.9273 13.0767 24.9273C14.7024 24.9273 16.2145 24.4467 17.4651 23.6231C17.5993 23.5379 17.7289 23.4461 17.8562 23.35C17.8698 23.3412 17.8858 23.3281 17.8994 23.3172C17.9335 23.2932 17.9653 23.267 17.9995 23.2386C18.311 22.9983 18.5975 22.7361 18.8658 22.4521C19.7048 21.576 20.2096 20.4902 21.1123 18.6136C21.2214 18.3842 21.3374 18.1483 21.4602 17.8948L23.9432 12.7827L23.9477 12.774L23.9523 12.763L24.5185 11.5986L24.714 11.2381L24.7208 11.2359Z" fill="white"/>
<path d="M38.5228 18.4999C37.9066 19.7714 36.3354 20.3197 35.0143 19.7277C33.6933 19.1356 33.1203 17.626 33.7365 16.3546C34.3527 15.0853 35.9239 14.5369 37.2472 15.1289C38.5683 15.721 39.1413 17.2306 38.5228 18.4999Z" fill="white"/>
<path d="M36.1353 14.8908C36.0876 14.893 36.0376 14.8952 35.9875 14.8974C36.083 14.8908 36.1763 14.8908 36.2718 14.8952C36.2263 14.893 36.1808 14.8908 36.1353 14.8908Z" fill="white"/>
<path d="M92.8191 15.2862C92.8191 14.1065 93.0465 13.0076 93.5058 11.9917C93.9628 10.9758 94.5904 10.0845 95.3862 9.31983C96.1821 8.5552 97.1166 7.95222 98.1876 7.5131C99.2585 7.07398 100.395 6.85333 101.596 6.85333C102.797 6.85333 103.968 7.07398 105.025 7.5131C106.082 7.95222 107.017 8.5552 107.826 9.31983C108.636 10.0867 109.27 10.9758 109.727 11.9917C110.184 13.0076 110.414 14.1065 110.414 15.2862C110.414 16.4659 110.184 17.532 109.727 18.561C109.27 19.59 108.636 20.4945 107.826 21.2722C107.017 22.05 106.082 22.6595 105.025 23.0986C103.968 23.5377 102.824 23.7584 101.596 23.7584C100.368 23.7584 99.2585 23.5399 98.1876 23.0986C97.1166 22.6595 96.1821 22.0521 95.3862 21.2722C94.5881 20.4945 93.9628 19.5922 93.5058 18.561C93.0487 17.532 92.8191 16.4397 92.8191 15.2862ZM96.2662 15.2862C96.2662 15.9897 96.4026 16.6538 96.6777 17.2808C96.9529 17.9078 97.3303 18.454 97.8146 18.9193C98.2967 19.3846 98.8651 19.7473 99.52 20.0116C100.173 20.276 100.866 20.4071 101.596 20.4071C102.326 20.4071 103.019 20.276 103.672 20.0116C104.325 19.7473 104.893 19.3846 105.377 18.9193C105.862 18.454 106.239 17.91 106.514 17.2808C106.789 16.6538 106.926 15.9875 106.926 15.2862C106.926 14.5849 106.789 13.9251 106.514 13.3091C106.239 12.6952 105.862 12.1555 105.377 11.6902C104.893 11.2271 104.325 10.8622 103.672 10.5979C103.019 10.3335 102.326 10.2024 101.596 10.2024C100.866 10.2024 100.173 10.3335 99.52 10.5979C98.8674 10.8622 98.299 11.2249 97.8146 11.6902C97.3303 12.1555 96.9529 12.6952 96.6777 13.3091C96.4026 13.9251 96.2662 14.5827 96.2662 15.2862Z" fill="white"/>
<path d="M74.3376 5.49664C74.1534 5.90954 74.0625 6.34866 74.0625 6.81837C74.0625 7.28808 74.1557 7.73156 74.3376 8.15102C74.5195 8.57048 74.7719 8.93532 75.097 9.24555C75.4177 9.55577 75.7997 9.79827 76.2339 9.97523C76.6682 10.1522 77.1321 10.2396 77.621 10.2396H84.6971C85.6589 10.2396 86.5661 10.4165 87.4233 10.7661C88.2806 11.1178 89.0264 11.6006 89.663 12.2123C90.0928 12.6252 90.4634 13.084 90.7681 13.5909V13.5952C90.9136 13.8356 91.0455 14.0868 91.1638 14.349C91.5298 15.1595 91.7118 16.0377 91.7118 16.9815C91.7118 17.9253 91.5298 18.7773 91.1638 19.6009C91.0387 19.8784 90.9023 20.1449 90.7454 20.4005C90.7454 20.4005 90.7454 20.4027 90.7431 20.4049C90.443 20.9052 90.0814 21.3596 89.6608 21.7681C89.0218 22.3908 88.2783 22.8779 87.4211 23.2275C87.2756 23.2887 87.13 23.3433 86.98 23.3913C86.2546 23.6338 85.4929 23.754 84.6948 23.754H70.5926V20.4027H84.6948C85.1836 20.4027 85.6475 20.3153 86.0818 20.1384C86.5184 19.9614 86.8981 19.7189 87.2187 19.4087C87.5416 19.0984 87.7963 18.7336 87.9782 18.3141C88.1623 17.8969 88.2533 17.4512 88.2533 16.9815C88.2533 16.5118 88.1601 16.0727 87.9782 15.6598C87.7963 15.249 87.5439 14.8886 87.2187 14.5783C86.8981 14.2681 86.5161 14.0256 86.0818 13.8487C85.7066 13.6979 85.3087 13.6105 84.8949 13.5909C84.8699 13.5909 84.8471 13.5887 84.8198 13.5865C84.8107 13.5865 84.8016 13.5865 84.7948 13.5865C84.7607 13.5865 84.7266 13.5865 84.6948 13.5865C84.6629 13.5865 84.6288 13.5865 84.597 13.5865H77.4686C76.7251 13.5712 76.0134 13.4511 75.3335 13.2238C75.1835 13.1758 75.0379 13.1212 74.8924 13.06C74.0352 12.7083 73.2894 12.2233 72.6527 11.6006C72.232 11.1899 71.8682 10.7355 71.5704 10.2374C71.5704 10.2374 71.5704 10.2352 71.5681 10.233C71.4135 9.97741 71.2748 9.71088 71.1497 9.43343C70.7836 8.61199 70.6017 7.73812 70.6017 6.814C70.6017 5.88988 70.7836 4.99198 71.1497 4.18146C71.268 3.9193 71.3998 3.66806 71.5454 3.42775L71.5476 3.42338C71.8546 2.91653 72.223 2.45775 72.6527 2.04485C73.2916 1.43314 74.0352 0.950324 74.8924 0.598591C75.7474 0.249042 76.6569 0.0720825 77.6187 0.0720825H91.7208V3.42338H77.7187C77.6869 3.42338 77.6528 3.42338 77.621 3.42338C77.5891 3.42338 77.555 3.42338 77.5209 3.42338C77.4868 3.42338 77.4527 3.42556 77.4209 3.42775C77.0048 3.44741 76.6091 3.5348 76.2339 3.68554C75.7974 3.8625 75.4177 4.105 75.097 4.41522C74.7742 4.72545 74.5195 5.08592 74.3376 5.49664Z" fill="white"/>
<path d="M118.365 3.74675C117.713 4.0111 117.144 4.37375 116.66 4.83909C116.176 5.30442 115.798 5.84404 115.523 6.45793C115.248 7.07401 115.111 7.7316 115.111 8.43507V10.1675H122.165V13.5188H115.111V23.6841H111.623V8.43725C111.623 7.25753 111.851 6.15863 112.31 5.14276C112.767 4.12688 113.402 3.23553 114.211 2.47089C115.021 1.70626 115.962 1.10329 117.033 0.664168C118.104 0.225048 119.241 0.00439453 120.441 0.00439453H122.165V3.35569H120.441C119.709 3.35569 119.018 3.48677 118.365 3.75112V3.74675Z" fill="white"/>
<path d="M134 20.3306V23.6819H132.276C131.074 23.6819 129.939 23.4634 128.868 23.0221C127.797 22.583 126.856 21.9735 126.046 21.1957C125.237 20.418 124.602 19.5135 124.145 18.4846C123.688 17.4556 123.459 16.3632 123.459 15.2097V0H126.947V10.1653H134V13.5166H126.947V15.2097C126.947 15.9132 127.083 16.5773 127.358 17.2043C127.633 17.8313 128.011 18.3775 128.495 18.8429C128.977 19.3082 129.546 19.6708 130.2 19.9352C130.853 20.1995 131.547 20.3306 132.276 20.3306H134Z" fill="white"/>
<path d="M63.7212 16.064H70.4335V17.7768H63.7212V16.064Z" fill="white"/>
<path d="M61.6816 8.85887C61.6816 7.77308 60.7994 6.85333 59.6306 6.85333C58.5392 6.85333 57.6365 7.8277 57.6365 8.84139C57.6365 9.98179 58.4801 10.8841 59.6875 10.8841C60.8176 10.8841 61.6816 9.92717 61.6816 8.85887Z" fill="#FFCE09"/>
<path d="M63.6462 22.2706C62.2296 22.7884 61.0973 22.7338 60.3401 22.5612C59.8262 22.5 59.4851 22.3405 59.2577 22.1461H59.2555C58.803 21.7529 58.8075 21.2242 58.8075 21.0559C58.8075 20.8353 58.9303 20.2848 58.9872 20.0641L60.979 13.2851C60.9995 13.2108 61.1314 12.7323 61.1314 12.6581C61.1314 12.5117 61.1132 12.4199 60.9586 12.4199C60.8426 12.4199 60.6516 12.4942 60.5379 12.5488C59.6579 12.8263 57.7593 13.0098 56.802 13.0098H56.0744C56.0358 13.213 55.9221 13.5254 55.9221 13.7264C55.9221 14.2245 56.8043 13.8356 56.8043 14.6286C56.8043 14.7575 56.7838 14.8493 56.727 14.9978L55.6674 18.8451C55.5514 19.3038 55.4059 19.8413 55.3809 20.3001C55.2308 23.0833 57.7116 23.6295 58.8121 23.73C60.0786 23.8458 61.8658 23.612 62.8163 23.2865C63.1255 23.1816 63.3915 23.0768 63.6485 22.961V22.2706H63.6462Z" fill="#FFCE09"/>
<path d="M56.1426 29.3446H57.9684V29.9432H55.3695V26.7186H57.9048V27.3172H56.1403V29.3446H56.1426ZM56.0857 28.0141H57.7001V28.5996H56.0857V28.0141Z" fill="white"/>
<path d="M58.5892 29.9432V26.7186H59.2304L61.2109 29.0409H60.8994V26.7186H61.6656V29.9432H61.0222L59.0417 27.6231H59.3532V29.9432H58.5869H58.5892Z" fill="white"/>
<path d="M64.0804 29.9978C63.8144 29.9978 63.5711 29.9563 63.346 29.8755C63.1209 29.7946 62.9299 29.6789 62.7662 29.5281C62.6024 29.3774 62.4751 29.2004 62.3842 28.9994C62.2932 28.7984 62.2477 28.5734 62.2477 28.3309C62.2477 28.0884 62.2932 27.8656 62.3842 27.6624C62.4751 27.4592 62.6047 27.2844 62.7707 27.1337C62.9367 26.983 63.1322 26.8672 63.3551 26.7863C63.5779 26.7055 63.8258 26.664 64.0941 26.664C64.3919 26.664 64.658 26.7121 64.8967 26.806C65.1355 26.9021 65.3356 27.0398 65.4993 27.2211L65.0059 27.6624C64.8808 27.5379 64.7466 27.4439 64.6034 27.3849C64.4601 27.326 64.301 27.2954 64.1282 27.2954C63.969 27.2954 63.8212 27.3216 63.6871 27.3718C63.5529 27.4221 63.4369 27.4942 63.3392 27.5859C63.2414 27.6777 63.1664 27.7869 63.1141 27.9136C63.0618 28.0403 63.0345 28.1802 63.0345 28.3331C63.0345 28.486 63.0618 28.6171 63.1141 28.746C63.1664 28.8727 63.2414 28.9841 63.3392 29.0759C63.4369 29.1676 63.5506 29.2397 63.6848 29.2922C63.8189 29.3446 63.9645 29.3708 64.1236 29.3708C64.2828 29.3708 64.426 29.3468 64.5716 29.2965C64.7171 29.2485 64.8581 29.1655 64.9968 29.0519L65.4379 29.5915C65.2514 29.7269 65.04 29.8296 64.8012 29.8973C64.5625 29.965 64.3214 30 64.0827 30L64.0804 29.9978ZM64.7285 29.491V28.2807H65.4379V29.5893L64.7285 29.4932V29.491Z" fill="white"/>
<path d="M65.7153 29.9432L67.2069 26.7186H67.9732L69.4784 29.9432H68.6644L67.432 27.0966H67.7435L66.5111 29.9432H65.7153ZM66.4679 29.2529L66.6635 28.687H68.3984L68.6007 29.2529H66.4679Z" fill="white"/>
<path d="M71.3998 29.9978C71.1338 29.9978 70.8905 29.9563 70.6654 29.8755C70.4403 29.7946 70.2493 29.6789 70.0855 29.5281C69.9218 29.3774 69.7945 29.2004 69.7035 28.9994C69.6126 28.7984 69.5671 28.5734 69.5671 28.3309C69.5671 28.0884 69.6126 27.8656 69.7035 27.6624C69.7945 27.4592 69.9241 27.2844 70.0901 27.1337C70.2561 26.983 70.4516 26.8672 70.6745 26.7863C70.8973 26.7055 71.1451 26.664 71.4134 26.664C71.7113 26.664 71.9773 26.7121 72.2161 26.806C72.4548 26.9021 72.6549 27.0398 72.8187 27.2211L72.3252 27.6624C72.2002 27.5379 72.066 27.4439 71.9228 27.3849C71.7795 27.326 71.6204 27.2954 71.4476 27.2954C71.2884 27.2954 71.1406 27.3216 71.0064 27.3718C70.8723 27.4221 70.7563 27.4942 70.6585 27.5859C70.5608 27.6777 70.4857 27.7869 70.4334 27.9136C70.3811 28.0403 70.3539 28.1802 70.3539 28.3331C70.3539 28.486 70.3811 28.6171 70.4334 28.746C70.4857 28.8727 70.5608 28.9841 70.6585 29.0759C70.7563 29.1676 70.87 29.2397 71.0042 29.2922C71.1383 29.3446 71.2838 29.3708 71.443 29.3708C71.6022 29.3708 71.7454 29.3468 71.8909 29.2965C72.0365 29.2485 72.1774 29.1655 72.3161 29.0519L72.7573 29.5915C72.5708 29.7269 72.3593 29.8296 72.1206 29.8973C71.8818 29.965 71.6408 30 71.4021 30L71.3998 29.9978ZM72.0478 29.491V28.2807H72.7573V29.5893L72.0478 29.4932V29.491Z" fill="white"/>
<path d="M74.2466 29.3446H76.0725V29.9432H73.4735V26.7186H76.0088V27.3172H74.2443V29.3446H74.2466ZM74.1898 28.0141H75.8042V28.5996H74.1898V28.0141Z" fill="white"/>
<path d="M76.6909 29.9432V26.7186H77.3322L78.7601 28.9929H78.419L79.8197 26.7186H80.4677V29.9432H79.7447L79.7356 27.7935H79.8788L78.7487 29.598H78.4031L77.2571 27.7935H77.4163V29.9432H76.6932H76.6909Z" fill="white"/>
<path d="M82.0412 29.3446H83.8671V29.9432H81.2681V26.7186H83.8034V27.3172H82.0389V29.3446H82.0412ZM81.9844 28.0141H83.5988V28.5996H81.9844V28.0141Z" fill="white"/>
<path d="M84.4856 29.9432V26.7186H85.1268L87.1073 29.0409H86.7957V26.7186H87.562V29.9432H86.9185L84.938 27.6231H85.2495V29.9432H84.4833H84.4856Z" fill="white"/>
<path d="M89.0536 29.9432V27.3282H87.9804V26.7208H90.9045V27.3282H89.8313V29.9432H89.0536Z" fill="white"/>
<path d="M93.7309 29.9978C93.4876 29.9978 93.2693 29.9607 93.076 29.882C92.8827 29.8056 92.7304 29.7007 92.619 29.5696C92.5076 29.4385 92.4507 29.2856 92.4507 29.113C92.4507 28.9535 92.4871 28.8093 92.5621 28.6804C92.6349 28.5515 92.7531 28.4314 92.9123 28.3222C93.0715 28.2129 93.2761 28.1015 93.5262 27.9945C93.7059 27.9136 93.8446 27.8437 93.9446 27.7825C94.0447 27.7214 94.1151 27.6624 94.1583 27.6078C94.1993 27.5531 94.2197 27.4942 94.2197 27.433C94.2197 27.3565 94.1924 27.2932 94.1356 27.2429C94.0788 27.1927 93.9969 27.1665 93.8878 27.1665C93.7718 27.1665 93.6831 27.1949 93.6194 27.2495C93.5558 27.3041 93.5239 27.3762 93.5239 27.4614C93.5239 27.5073 93.533 27.5531 93.5558 27.5968C93.5762 27.6405 93.6126 27.693 93.6649 27.7498C93.7172 27.8066 93.7945 27.8808 93.8923 27.9726L95.6613 29.5434L95.2589 30L93.3034 28.2544C93.1942 28.1583 93.1078 28.0687 93.0396 27.9835C92.9714 27.8983 92.9214 27.8131 92.8896 27.7279C92.8554 27.6427 92.8395 27.5575 92.8395 27.4723C92.8395 27.315 92.8827 27.1774 92.9714 27.0572C93.0601 26.9371 93.1829 26.8453 93.3398 26.7798C93.4967 26.7142 93.6786 26.6815 93.8832 26.6815C94.0878 26.6815 94.2516 26.712 94.3948 26.771C94.5381 26.83 94.6495 26.9152 94.7313 27.0266C94.8132 27.1381 94.8541 27.2691 94.8541 27.4221C94.8541 27.5531 94.8177 27.6777 94.7495 27.7913C94.6813 27.9049 94.5699 28.0119 94.4198 28.1081C94.2698 28.2042 94.0765 28.3069 93.84 28.4074C93.6808 28.4773 93.5512 28.5472 93.4557 28.6149C93.3602 28.6826 93.292 28.7482 93.2488 28.8159C93.2079 28.8814 93.1874 28.9579 93.1874 29.0431C93.1874 29.1174 93.2124 29.1851 93.2602 29.2463C93.3079 29.3074 93.3762 29.3555 93.4671 29.3861C93.5581 29.4167 93.6627 29.4342 93.7877 29.4342C93.9833 29.4342 94.1606 29.3905 94.3221 29.3031C94.4835 29.2157 94.6222 29.0868 94.7359 28.9142C94.8518 28.7416 94.9314 28.5341 94.9815 28.2872L95.5817 28.462C95.5181 28.7744 95.3998 29.0475 95.2248 29.2769C95.0497 29.5084 94.8359 29.6854 94.5813 29.8121C94.3266 29.9388 94.0446 30 93.7354 30L93.7309 29.9978Z" fill="white"/>
<path d="M99.1516 29.9978C98.8856 29.9978 98.6423 29.9563 98.4172 29.8733C98.1943 29.7903 97.9988 29.6745 97.8328 29.5237C97.6668 29.373 97.5372 29.196 97.4463 28.9951C97.3553 28.7919 97.3098 28.5712 97.3098 28.3309C97.3098 28.0906 97.3553 27.8656 97.4463 27.6646C97.5372 27.4636 97.6668 27.2866 97.8328 27.1381C97.9988 26.9873 98.1921 26.8715 98.4149 26.7885C98.6377 26.7055 98.881 26.664 99.1448 26.664C99.4086 26.664 99.6541 26.7055 99.8747 26.7863C100.098 26.8672 100.291 26.983 100.457 27.1337C100.623 27.2844 100.752 27.4614 100.843 27.6624C100.934 27.8656 100.98 28.0884 100.98 28.3309C100.98 28.5734 100.934 28.7919 100.843 28.9972C100.752 29.2004 100.623 29.3796 100.457 29.5281C100.291 29.6789 100.098 29.7946 99.8747 29.8755C99.6519 29.9563 99.4108 29.9978 99.1493 29.9978H99.1516ZM99.1471 29.3664C99.2971 29.3664 99.4358 29.3402 99.5609 29.29C99.6882 29.2397 99.7974 29.1676 99.8951 29.0737C99.9906 28.9798 100.066 28.8705 100.118 28.746C100.17 28.6215 100.198 28.4838 100.198 28.3287C100.198 28.1736 100.17 28.036 100.118 27.9115C100.066 27.7869 99.9906 27.6777 99.8951 27.5837C99.7996 27.4898 99.6882 27.4177 99.5609 27.3675C99.4358 27.3172 99.2971 27.291 99.1471 27.291C98.997 27.291 98.8583 27.3172 98.7287 27.3675C98.6014 27.4177 98.4899 27.4898 98.3944 27.5837C98.3012 27.6777 98.2262 27.7869 98.1739 27.9115C98.1216 28.036 98.0943 28.1758 98.0943 28.3287C98.0943 28.4817 98.1216 28.6215 98.1739 28.746C98.2262 28.8705 98.3012 28.9798 98.3944 29.0737C98.4899 29.1676 98.5991 29.2397 98.7287 29.29C98.856 29.3402 98.9947 29.3664 99.1471 29.3664Z" fill="white"/>
<path d="M101.569 29.9432V26.7186H103.022C103.322 26.7186 103.581 26.7645 103.799 26.8585C104.018 26.9524 104.184 27.0857 104.302 27.2604C104.42 27.4352 104.479 27.6427 104.479 27.8831C104.479 28.1234 104.42 28.3331 104.302 28.5079C104.184 28.6805 104.015 28.8159 103.799 28.9099C103.581 29.006 103.324 29.0519 103.022 29.0519H101.996L102.351 28.7154V29.941H101.569V29.9432ZM102.351 28.8006L101.996 28.4467H102.978C103.215 28.4467 103.395 28.3986 103.515 28.3003C103.636 28.202 103.697 28.0644 103.697 27.8852C103.697 27.7061 103.636 27.5707 103.515 27.4723C103.392 27.3762 103.215 27.3282 102.978 27.3282H101.996L102.351 26.9742V28.8028V28.8006Z" fill="white"/>
<path d="M105.634 29.9432V27.3282H104.561V26.7208H107.485V27.3282H106.412V29.9432H105.637H105.634Z" fill="white"/>
<path d="M107.901 29.9432V26.7186H108.683V29.9432H107.901Z" fill="white"/>
<path d="M109.472 29.9432V26.7186H110.114L111.542 28.9929H111.201L112.601 26.7186H113.249V29.9432H112.526L112.517 27.7935H112.66L111.53 29.598H111.185L110.039 27.7935H110.195V29.9432H109.472Z" fill="white"/>
<path d="M114.05 29.9432V26.7186H114.832V29.9432H114.05Z" fill="white"/>
<path d="M115.407 29.9432V29.4604L117.483 27.0573L117.579 27.3282H115.446V26.7208H118.27V27.2036L116.198 29.6068L116.103 29.3359H118.34V29.9432H115.407Z" fill="white"/>
<path d="M118.397 29.9432L119.889 26.7186H120.655L122.16 29.9432H121.346L120.114 27.0966H120.425L119.193 29.9432H118.397ZM119.15 29.2529L119.345 28.687H121.08L121.283 29.2529H119.15Z" fill="white"/>
<path d="M123.038 29.9432V27.3282H121.965V26.7208H124.889V27.3282H123.816V29.9432H123.04H123.038Z" fill="white"/>
<path d="M125.305 29.9432V26.7186H126.087V29.9432H125.305Z" fill="white"/>
<path d="M128.506 29.9978C128.24 29.9978 127.997 29.9563 127.772 29.8733C127.549 29.7903 127.354 29.6745 127.188 29.5237C127.022 29.373 126.892 29.196 126.801 28.9951C126.71 28.7919 126.665 28.5712 126.665 28.3309C126.665 28.0906 126.71 27.8656 126.801 27.6646C126.892 27.4636 127.022 27.2866 127.188 27.1381C127.354 26.9873 127.547 26.8715 127.77 26.7885C127.993 26.7055 128.236 26.664 128.5 26.664C128.763 26.664 129.009 26.7055 129.23 26.7863C129.452 26.8672 129.646 26.983 129.812 27.1337C129.978 27.2844 130.107 27.4614 130.198 27.6624C130.289 27.8656 130.335 28.0884 130.335 28.3309C130.335 28.5734 130.289 28.7919 130.198 28.9972C130.107 29.2004 129.978 29.3796 129.812 29.5281C129.646 29.6789 129.452 29.7946 129.23 29.8755C129.007 29.9563 128.766 29.9978 128.504 29.9978H128.506ZM128.502 29.3664C128.652 29.3664 128.791 29.3402 128.916 29.29C129.043 29.2397 129.152 29.1676 129.25 29.0737C129.346 28.9798 129.421 28.8705 129.473 28.746C129.525 28.6215 129.552 28.4838 129.552 28.3287C129.552 28.1736 129.525 28.036 129.473 27.9115C129.421 27.7869 129.346 27.6777 129.25 27.5837C129.155 27.4898 129.043 27.4177 128.916 27.3675C128.791 27.3172 128.652 27.291 128.502 27.291C128.352 27.291 128.213 27.3172 128.084 27.3675C127.956 27.4177 127.845 27.4898 127.749 27.5837C127.656 27.6777 127.581 27.7869 127.529 27.9115C127.476 28.036 127.449 28.1758 127.449 28.3287C127.449 28.4817 127.476 28.6215 127.529 28.746C127.581 28.8705 127.656 28.9798 127.749 29.0737C127.845 29.1676 127.954 29.2397 128.084 29.29C128.211 29.3402 128.35 29.3664 128.502 29.3664Z" fill="white"/>
<path d="M130.921 29.9432V26.7186H131.562L133.543 29.0409H133.231V26.7186H133.998V29.9432H133.354L131.374 27.6231H131.685V29.9432H130.919H130.921Z" fill="white"/>
</svg>
