<svg width="97" height="21" viewBox="0 0 97 21" fill="none" xmlns="http://www.w3.org/2000/svg">
<path d="M28.0637 12.2969C28.0604 12.3566 28.0538 12.4162 28.0439 12.4759C28.0374 12.5126 28.0291 12.5493 28.0209 12.586C28.0143 12.615 28.0061 12.6425 27.9962 12.6716C27.988 12.7037 27.9765 12.7343 27.9649 12.7649C27.9551 12.794 27.9435 12.8245 27.9304 12.8536C27.9172 12.8857 27.9024 12.9178 27.8859 12.9499C27.4399 13.84 26.3025 14.2238 25.3462 13.8094C24.4031 13.4011 23.9866 12.3658 24.4047 11.4834C24.4096 11.4711 24.4146 11.4604 24.4212 11.4482C24.4261 11.439 24.4294 11.4298 24.436 11.4222C24.6779 10.9558 25.1125 10.6331 25.6096 10.497C25.6441 10.4878 25.6803 10.4786 25.7165 10.471C25.7528 10.4633 25.789 10.4572 25.8252 10.4511C25.8581 10.445 25.8894 10.4419 25.9223 10.4373C25.9651 10.4327 26.0079 10.4297 26.0507 10.4282C26.1198 10.4236 26.1873 10.4236 26.2564 10.4266C26.319 10.4297 26.3815 10.4343 26.4441 10.445C26.4869 10.4511 26.528 10.4587 26.5708 10.4679C26.6975 10.4954 26.8226 10.5367 26.9444 10.5887C27.5189 10.838 27.9057 11.3151 28.0275 11.8504C28.0357 11.8856 28.0423 11.9207 28.0472 11.9574C28.0653 12.0691 28.0703 12.1822 28.0637 12.2969Z" fill="white"/>
<path d="M34.7216 15.9183C32.7942 19.7598 28.2398 21.702 23.9653 20.7645C23.3464 20.63 22.7324 20.4342 22.1349 20.1742C21.5457 19.9188 20.9992 19.6161 20.4956 19.2689L21.4222 17.4215H21.4239L22.1695 15.9351L24.0508 12.1838C24.0459 12.9255 24.4969 13.6366 25.2656 13.97C26.0342 14.3034 26.9099 14.1672 27.5156 13.6871L25.6392 17.4261C27.9386 17.6142 30.2249 16.4703 31.2552 14.4165C32.2873 12.3642 31.7605 9.99844 30.1261 8.48446C30.0603 8.42176 29.9911 8.36059 29.9204 8.30401C29.8265 6.59275 29.2537 4.99924 28.3221 3.63513C28.9377 3.77124 29.5451 3.96699 30.1393 4.2239C30.7384 4.48235 31.2931 4.79279 31.8033 5.14453C35.3241 7.58525 36.6491 12.0752 34.7216 15.9183Z" fill="white"/>
<path d="M17.8949 7.86518C18.2323 7.36052 18.8331 7.02713 19.5178 7.02713C19.8075 7.02713 20.0824 7.08677 20.3293 7.19382C20.3359 7.19841 20.3441 7.20147 20.3524 7.20453C20.9893 7.49203 21.4288 8.10068 21.4288 8.80262C21.4288 9.04883 21.3761 9.28128 21.279 9.49385C21.2659 9.52444 21.251 9.55197 21.2362 9.58102L21.2099 9.63455L21.2066 9.64066L20.8527 10.3472V10.3518L20.8478 10.3579L19.0043 14.0312L18.7508 14.5343L18.0957 15.8358L18.0069 16.0147C17.9476 16.1263 17.8883 16.238 17.8242 16.345C17.8176 16.3557 17.811 16.3679 17.8028 16.3786C17.7814 16.4153 17.7616 16.4521 17.7402 16.4872C17.5657 16.7778 17.3732 17.0592 17.1625 17.3283C17.0209 17.5118 16.8711 17.6892 16.7148 17.8605C16.6884 17.8911 16.6621 17.9202 16.6341 17.9492C16.5963 17.992 16.5568 18.0318 16.5173 18.0731C16.4843 18.1052 16.4531 18.1373 16.4201 18.1694C14.6919 19.9082 12.2131 20.9986 9.46923 20.9986C8.09156 20.9986 6.78302 20.7233 5.59957 20.2309L5.36584 20.13C2.19407 18.7062 0 15.6859 0 12.1991C0 10.9191 0.296274 9.70336 0.826274 8.60382L0.934908 8.38666C2.20065 5.95052 4.63833 4.13527 7.56485 3.57862C8.12942 3.47004 8.71209 3.4104 9.30793 3.40122C9.36225 3.40122 9.41492 3.40122 9.46923 3.40122C9.57128 3.40122 9.67004 3.40122 9.77045 3.40581C10.121 3.41652 10.4683 3.44404 10.8107 3.48992C11.0971 3.52662 11.3786 3.57709 11.6567 3.63826C11.6831 3.64285 11.7077 3.64897 11.7341 3.65508C11.7341 3.65508 11.7423 3.65814 11.7489 3.65967C11.7719 3.66579 11.7966 3.67037 11.8197 3.67802C11.8345 3.65814 11.8477 3.64132 11.8625 3.62144C11.8756 3.60309 11.8904 3.58627 11.9053 3.56638C11.9086 3.5618 11.9118 3.55721 11.9151 3.55262C11.9744 3.47921 12.0336 3.40581 12.0945 3.33546C12.1439 3.27735 12.1933 3.22383 12.2427 3.16724C12.2493 3.15807 12.2591 3.14889 12.2674 3.13972C12.3135 3.08925 12.3595 3.03878 12.4073 2.98985C12.4204 2.97455 12.4353 2.95926 12.4501 2.9455C12.4912 2.90115 12.5357 2.8568 12.5801 2.81245C12.6525 2.74057 12.725 2.6687 12.799 2.60141C12.8533 2.54942 12.9093 2.49895 12.9653 2.45001C13.0509 2.37355 13.1381 2.29861 13.2253 2.22674C13.2714 2.18851 13.3159 2.1518 13.3636 2.1151C13.5101 1.99735 13.6615 1.88571 13.8179 1.7756C13.8886 1.72667 13.9594 1.67773 14.0318 1.62879C14.0944 1.5875 14.1569 1.54774 14.2195 1.50798C14.2541 1.48504 14.2919 1.4621 14.3281 1.44069C14.3791 1.40858 14.4318 1.37799 14.4828 1.34741C14.4878 1.34435 14.4911 1.34129 14.496 1.34129C14.5586 1.30459 14.6211 1.26788 14.6836 1.23271C14.7725 1.18377 14.8647 1.13484 14.9552 1.08743C15.0309 1.0492 15.105 1.0125 15.1824 0.975793C15.189 0.972734 15.1955 0.969676 15.2021 0.966617C15.3618 0.890154 15.5247 0.818277 15.691 0.750989C15.7749 0.717345 15.8589 0.682173 15.9445 0.651587C16.1897 0.556772 16.4415 0.47419 16.6967 0.399255C16.7049 0.399255 16.7148 0.394669 16.7214 0.393139C16.8053 0.3702 16.8892 0.347262 16.9748 0.324322C16.9864 0.319735 17.0012 0.318204 17.0143 0.313616C17.0851 0.295265 17.1559 0.279972 17.2283 0.26315C17.2481 0.257033 17.2678 0.253976 17.2892 0.247859C17.3699 0.229507 17.4505 0.214214 17.5312 0.197392C17.6217 0.179041 17.7155 0.162219 17.8077 0.146926C17.8982 0.130104 17.992 0.116339 18.0859 0.102576C18.1879 0.087283 18.29 0.0750488 18.3953 0.0643439C18.4792 0.0551682 18.5648 0.0459944 18.6504 0.0398773C18.7393 0.0322309 18.8315 0.0245838 18.922 0.0199959C18.9286 0.0199959 18.9335 0.0199959 18.9418 0.0199959C19.0306 0.0138788 19.1195 0.01082 19.2101 0.00776147H19.2315C19.3253 0.00470292 19.4191 0.00317383 19.5146 0.00317383H19.5211C19.6084 0.00317383 19.6956 0.00317364 19.7828 0.00776147C19.8701 0.00776147 19.9557 0.0138782 20.0429 0.0169367C20.1087 0.0199953 20.1762 0.0230541 20.2421 0.0291712C20.2898 0.0322298 20.3408 0.0352886 20.3886 0.0414057C20.4495 0.0459935 20.5087 0.0505814 20.568 0.0582278C20.6503 0.0658742 20.7309 0.0765795 20.8116 0.0872844C20.8198 0.0872844 20.8297 0.0872827 20.8396 0.0903413C20.9021 0.0979877 20.9646 0.107165 21.0256 0.116341C21.0799 0.123987 21.1325 0.133163 21.1869 0.142338C21.2593 0.154573 21.3317 0.166807 21.4041 0.18057C21.4239 0.183629 21.442 0.186686 21.4601 0.191274C21.5193 0.201979 21.5769 0.214212 21.6346 0.226447C21.6494 0.229505 21.6658 0.232566 21.679 0.235624C21.7448 0.250917 21.8107 0.266209 21.8765 0.279972C21.9522 0.298323 22.0279 0.316676 22.1037 0.338085C22.2534 0.376317 22.3999 0.420666 22.5481 0.466544C22.5826 0.477249 22.6188 0.487954 22.6534 0.500188C22.7044 0.51701 22.7555 0.532303 22.8048 0.550654C22.8806 0.576652 22.9579 0.604178 23.032 0.633234C23.0945 0.656173 23.1554 0.679114 23.2163 0.703582C23.2674 0.723463 23.32 0.744873 23.371 0.766283C23.3924 0.773929 23.4138 0.783104 23.4336 0.79228C23.4566 0.801456 23.4797 0.812161 23.5011 0.821337C23.5093 0.825925 23.5208 0.828983 23.5324 0.8351C23.5422 0.839687 23.5538 0.844275 23.5636 0.848863C23.6097 0.868743 23.6542 0.888623 23.6986 0.910033C23.7397 0.928384 23.7809 0.946736 23.8204 0.968146C23.957 1.03238 24.0903 1.09966 24.2237 1.17154C24.2862 1.20365 24.3504 1.24036 24.4129 1.27553C24.4903 1.31988 24.5693 1.36423 24.645 1.41011C24.7619 1.48045 24.8788 1.55386 24.9923 1.62879C25.1191 1.71137 25.2425 1.79854 25.3627 1.88724C25.4203 1.93006 25.4779 1.97135 25.5338 2.0157C25.5915 2.05852 25.6458 2.10134 25.7017 2.14722C25.761 2.1931 25.8186 2.24356 25.8779 2.2925C25.9914 2.38731 26.1001 2.48366 26.207 2.58459C26.2597 2.63353 26.3124 2.68399 26.3651 2.73599C26.4177 2.78645 26.4688 2.83845 26.5198 2.89045C26.6235 2.99444 26.7222 3.10148 26.8177 3.21006C26.8638 3.26206 26.9082 3.31405 26.9543 3.36758C26.9576 3.37064 26.9609 3.37369 26.9625 3.37828C27.9798 4.58335 28.6678 6.03616 28.8982 7.62508C28.7747 7.56085 28.6497 7.50121 28.5196 7.44463C27.9172 7.18312 27.2901 7.03019 26.6646 6.97667C26.2449 6.93996 25.8252 6.94761 25.4137 6.99808C25.2261 7.01949 25.0384 7.05313 24.8541 7.09289C24.8425 7.06078 24.831 7.03172 24.8179 7.00113C24.803 6.96137 24.7866 6.92161 24.7701 6.88185C24.7619 6.85891 24.7504 6.83444 24.7388 6.81151C24.7158 6.75645 24.6911 6.70293 24.6631 6.64787C24.6582 6.63564 24.6533 6.62493 24.645 6.6127C24.6253 6.56835 24.6006 6.524 24.5775 6.47965C24.5561 6.4353 24.5298 6.39248 24.5051 6.34966C24.4903 6.31908 24.4722 6.29155 24.4557 6.26402C24.4426 6.24109 24.4278 6.21815 24.4129 6.19368C24.3833 6.14321 24.3504 6.09427 24.3175 6.04534C24.3027 6.0224 24.2879 6.00099 24.2714 5.97805C24.2451 5.93829 24.2187 5.90006 24.1891 5.86335C24.1677 5.83124 24.143 5.80065 24.1183 5.76854C24.0393 5.66302 23.9554 5.56056 23.8632 5.46116C23.8385 5.43057 23.8122 5.40151 23.7825 5.37093C23.748 5.3327 23.7118 5.29599 23.6756 5.25929C23.6525 5.23482 23.6278 5.21035 23.5998 5.18589C23.5702 5.1553 23.5373 5.12472 23.506 5.09566C23.4747 5.06507 23.4435 5.03602 23.4089 5.00849C23.3464 4.95038 23.2822 4.89838 23.2163 4.84486C23.162 4.80051 23.1077 4.75769 23.0501 4.71793C22.9991 4.67664 22.9464 4.6384 22.8921 4.6017C22.8756 4.58947 22.8608 4.57876 22.8443 4.56959C22.7867 4.5283 22.7275 4.49007 22.6699 4.45336C22.6649 4.45031 22.6633 4.44725 22.66 4.44725C22.5876 4.4029 22.5151 4.36008 22.4411 4.31726C22.3868 4.28514 22.3308 4.25609 22.2732 4.22703C22.2534 4.21632 22.2353 4.20562 22.2139 4.19492C22.2189 4.19186 22.2222 4.19033 22.2287 4.1888L21.837 4.01905C21.628 3.93188 21.4124 3.85542 21.1901 3.79119C21.1539 3.78048 21.1161 3.76978 21.0799 3.7606C21.0206 3.74378 20.963 3.72849 20.9037 3.71625C20.8659 3.70708 20.8264 3.69637 20.7869 3.69026C20.749 3.68108 20.7095 3.67343 20.67 3.66579C20.5252 3.63673 20.377 3.61379 20.2273 3.59697C20.1812 3.59085 20.1351 3.58626 20.089 3.58168C20.0511 3.57709 20.0133 3.57556 19.9754 3.5725C19.9244 3.56791 19.8734 3.56485 19.8224 3.56333C19.7187 3.55721 19.6166 3.55568 19.5129 3.55568C19.2611 3.55568 19.0125 3.57097 18.7689 3.60003C18.6373 3.61685 18.5039 3.63673 18.3755 3.6612C18.2274 3.69025 18.0809 3.7239 17.9377 3.76213C17.8571 3.78354 17.7764 3.80801 17.6958 3.83248C17.6069 3.86153 17.5213 3.89059 17.4341 3.92118C17.3518 3.95329 17.2711 3.98388 17.1905 4.01752C17.1444 4.0374 17.1016 4.05575 17.0571 4.07563C16.9781 4.11081 16.8991 4.14751 16.8234 4.18727C16.8201 4.18727 16.8168 4.19033 16.8135 4.19339C16.7345 4.23468 16.6555 4.27597 16.5765 4.32032C16.4629 4.38455 16.3527 4.45336 16.2457 4.52218C15.9823 4.69652 15.7354 4.89074 15.5083 5.10483C15.4457 5.16295 15.3832 5.22565 15.3223 5.28682C15.2828 5.32964 15.2416 5.3694 15.2038 5.41375C15.1198 5.50551 15.0392 5.60032 14.9618 5.69972C14.9322 5.73642 14.9026 5.77466 14.8746 5.81289C14.7923 5.92147 14.7149 6.03463 14.6425 6.14933C14.6063 6.20744 14.5701 6.26402 14.5372 6.32367C14.5026 6.38178 14.4697 6.44142 14.4384 6.50106L14.4236 6.52859L14.3627 6.6494L14.3413 6.69375L13.4459 8.47689L13.301 8.76592L11.2304 12.8904L11.1827 12.9852C11.0313 13.2681 10.8025 13.5097 10.5177 13.6825C10.2181 13.8676 9.85604 13.9762 9.46759 13.9762C8.41253 13.9762 7.55662 13.1809 7.55662 12.2007C7.55662 11.956 7.60929 11.7205 7.70641 11.5094C7.72122 11.4773 7.73603 11.4467 7.75249 11.4162L9.0956 8.73839L9.98113 6.97361C9.81159 6.95832 9.64041 6.9522 9.46759 6.9522C9.40669 6.9522 9.34579 6.9522 9.28489 6.95679C8.79933 6.97055 8.33023 7.04089 7.88417 7.16324C6.33861 7.58226 5.06628 8.60076 4.37827 9.92817L4.31572 10.049C3.9964 10.7066 3.81864 11.4345 3.81864 12.2007C3.81864 14.3248 5.18643 16.16 7.14513 16.9842C7.85454 17.2824 8.63967 17.4491 9.46594 17.4491C10.6428 17.4491 11.7374 17.1127 12.6427 16.5362C12.7398 16.4765 12.8336 16.4123 12.9258 16.345C12.9356 16.3389 12.9472 16.3297 12.957 16.3221C12.9817 16.3052 13.0048 16.2869 13.0295 16.267C13.255 16.0988 13.4623 15.9153 13.6566 15.7165C14.2639 15.1032 14.6293 14.3432 15.2828 13.0295C15.3618 12.869 15.4457 12.7038 15.5346 12.5264L17.332 8.9479L17.3353 8.94178L17.3386 8.93414L17.7484 8.11903L17.89 7.8667L17.8949 7.86518Z" fill="white"/>
<path d="M27.8859 12.9499C27.4399 13.84 26.3025 14.2238 25.3462 13.8094C24.3899 13.3949 23.9751 12.3382 24.4212 11.4482C24.8672 10.5597 26.0046 10.1758 26.9625 10.5902C27.9188 11.0047 28.3336 12.0614 27.8859 12.9499Z" fill="white"/>
<path d="M26.1577 10.4236C26.1231 10.4251 26.0869 10.4266 26.0507 10.4282C26.1198 10.4236 26.1873 10.4236 26.2564 10.4266C26.2235 10.4251 26.1906 10.4236 26.1577 10.4236Z" fill="white"/>
<path d="M67.1899 10.7004C67.1899 9.87455 67.3545 9.10533 67.687 8.39422C68.0179 7.6831 68.4721 7.05916 69.0482 6.52391C69.6243 5.98867 70.3008 5.56659 71.0761 5.2592C71.8513 4.95182 72.6743 4.79736 73.5434 4.79736C74.4124 4.79736 75.2601 4.95182 76.0255 5.2592C76.7909 5.56659 77.4674 5.98867 78.0533 6.52391C78.6393 7.06069 79.0985 7.6831 79.4293 8.39422C79.7602 9.10533 79.9264 9.87455 79.9264 10.7004C79.9264 11.5262 79.7602 12.2725 79.4293 12.9927C79.0985 13.713 78.6393 14.3462 78.0533 14.8906C77.4674 15.435 76.7909 15.8617 76.0255 16.169C75.2601 16.4764 74.4322 16.6309 73.5434 16.6309C72.6545 16.6309 71.8513 16.478 71.0761 16.169C70.3008 15.8617 69.6243 15.4365 69.0482 14.8906C68.4705 14.3462 68.0179 13.7146 67.687 12.9927C67.3562 12.2725 67.1899 11.5078 67.1899 10.7004ZM69.6852 10.7004C69.6852 11.1928 69.784 11.6577 69.9831 12.0966C70.1823 12.5355 70.4555 12.9178 70.8061 13.2435C71.1551 13.5693 71.5666 13.8231 72.0406 14.0082C72.513 14.1932 73.015 14.285 73.5434 14.285C74.0717 14.285 74.5737 14.1932 75.0461 14.0082C75.5185 13.8231 75.93 13.5693 76.2806 13.2435C76.6312 12.9178 76.9044 12.537 77.1036 12.0966C77.3028 11.6577 77.4015 11.1913 77.4015 10.7004C77.4015 10.2095 77.3028 9.74762 77.1036 9.31637C76.9044 8.88664 76.6312 8.50891 76.2806 8.18318C75.93 7.85897 75.5185 7.60358 75.0461 7.41854C74.5737 7.2335 74.0717 7.14174 73.5434 7.14174C73.015 7.14174 72.513 7.2335 72.0406 7.41854C71.5682 7.60358 71.1567 7.85744 70.8061 8.18318C70.4555 8.50891 70.1823 8.88664 69.9831 9.31637C69.784 9.74762 69.6852 10.2079 69.6852 10.7004Z" fill="white"/>
<path d="M53.8116 3.84767C53.6782 4.1367 53.6124 4.44408 53.6124 4.77288C53.6124 5.10167 53.6799 5.41211 53.8116 5.70573C53.9432 5.99935 54.1259 6.25474 54.3613 6.4719C54.5934 6.68906 54.8699 6.85881 55.1843 6.98268C55.4987 7.10655 55.8344 7.16772 56.1883 7.16772H61.3106C62.0068 7.16772 62.6635 7.29159 63.2841 7.53628C63.9046 7.78249 64.4445 8.12046 64.9053 8.54866C65.2164 8.83769 65.4847 9.15884 65.7053 9.51363V9.51669C65.8106 9.68491 65.9061 9.86077 65.9917 10.0443C66.2567 10.6116 66.3884 11.2264 66.3884 11.8871C66.3884 12.5477 66.2567 13.1441 65.9917 13.7207C65.9012 13.9149 65.8024 14.1015 65.6888 14.2804C65.6888 14.2804 65.6888 14.2819 65.6872 14.2834C65.4699 14.6336 65.2082 14.9517 64.9037 15.2377C64.4412 15.6735 63.903 16.0146 63.2824 16.2593C63.1771 16.3021 63.0717 16.3403 62.9631 16.374C62.4381 16.5437 61.8867 16.6278 61.3089 16.6278H51.1006V14.2819H61.3089C61.6628 14.2819 61.9986 14.2207 62.313 14.0969C62.629 13.973 62.9039 13.8032 63.1359 13.5861C63.3697 13.3689 63.554 13.1135 63.6857 12.8199C63.819 12.5278 63.8849 12.2159 63.8849 11.8871C63.8849 11.5583 63.8174 11.2509 63.6857 10.9619C63.554 10.6743 63.3713 10.422 63.1359 10.2049C62.9039 9.9877 62.6273 9.81795 62.313 9.69408C62.0414 9.58856 61.7533 9.52739 61.4538 9.51363C61.4357 9.51363 61.4192 9.5121 61.3994 9.51057C61.3929 9.51057 61.3863 9.51057 61.3813 9.51057C61.3566 9.51057 61.332 9.51057 61.3089 9.51057C61.2859 9.51057 61.2612 9.51057 61.2381 9.51057H56.078C55.5398 9.49986 55.0246 9.41575 54.5325 9.25671C54.4239 9.22307 54.3185 9.18483 54.2132 9.14201C53.5926 8.8958 53.0528 8.5563 52.5919 8.12046C52.2874 7.83296 52.024 7.51487 51.8084 7.16619C51.8084 7.16619 51.8084 7.16466 51.8068 7.16313C51.6948 6.98421 51.5944 6.79764 51.5039 6.60342C51.2389 6.02841 51.1072 5.4167 51.1072 4.76982C51.1072 4.12293 51.2389 3.4944 51.5039 2.92704C51.5895 2.74353 51.685 2.56766 51.7903 2.39944L51.792 2.39638C52.0142 2.04159 52.2808 1.72044 52.5919 1.43141C53.0544 1.00321 53.5926 0.665245 54.2132 0.419032C54.832 0.174348 55.4904 0.0504761 56.1867 0.0504761H66.3949V2.39638H56.2591C56.2361 2.39638 56.2114 2.39638 56.1883 2.39638C56.1653 2.39638 56.1406 2.39638 56.1159 2.39638C56.0912 2.39638 56.0665 2.39791 56.0435 2.39944C55.7423 2.41321 55.4559 2.47438 55.1843 2.5799C54.8683 2.70377 54.5934 2.87352 54.3613 3.09067C54.1276 3.30783 53.9432 3.56016 53.8116 3.84767Z" fill="white"/>
<path d="M85.6823 2.6227C85.21 2.80774 84.7985 3.0616 84.4479 3.38734C84.0973 3.71307 83.8241 4.0908 83.6249 4.52053C83.4257 4.95178 83.327 5.4121 83.327 5.90452V7.11724H88.4328V9.46315H83.327V16.5789H80.8021V5.90605C80.8021 5.08025 80.9667 4.31102 81.2991 3.59991C81.63 2.88879 82.0892 2.26485 82.6752 1.7296C83.2611 1.19436 83.9426 0.772278 84.7178 0.464893C85.4931 0.157509 86.316 0.00305176 87.1851 0.00305176H88.4328V2.34896H87.1851C86.6551 2.34896 86.1547 2.44071 85.6823 2.62576V2.6227Z" fill="white"/>
<path d="M97 14.2314V16.5773H95.7524C94.8817 16.5773 94.0603 16.4244 93.2851 16.1155C92.5098 15.8081 91.8284 15.3814 91.2424 14.837C90.6565 14.2926 90.1972 13.6595 89.8664 12.9392C89.5356 12.2189 89.3693 11.4543 89.3693 10.6468V0H91.8942V7.11572H97V9.46162H91.8942V10.6468C91.8942 11.1392 91.993 11.6041 92.1922 12.043C92.3913 12.4819 92.6645 12.8643 93.0151 13.19C93.3641 13.5157 93.7756 13.7696 94.2496 13.9546C94.722 14.1397 95.224 14.2314 95.7524 14.2314H97Z" fill="white"/>
<path d="M46.1265 11.2448H50.9854V12.4437H46.1265V11.2448Z" fill="white"/>
<path d="M44.6501 6.20124C44.6501 5.44119 44.0115 4.79736 43.1655 4.79736C42.3754 4.79736 41.722 5.47942 41.722 6.189C41.722 6.98728 42.3326 7.61887 43.2066 7.61887C44.0247 7.61887 44.6501 6.94905 44.6501 6.20124Z" fill="#FFCE09"/>
<path d="M46.0722 15.5895C45.0468 15.9519 44.2271 15.9137 43.679 15.7929C43.307 15.75 43.0601 15.6384 42.8955 15.5023H42.8939C42.5663 15.227 42.5696 14.8569 42.5696 14.7392C42.5696 14.5847 42.6585 14.1994 42.6997 14.0449L44.1415 9.29956C44.1563 9.24757 44.2518 8.91266 44.2518 8.86066C44.2518 8.7582 44.2386 8.69397 44.1267 8.69397C44.0428 8.69397 43.9045 8.74596 43.8222 8.7842C43.1852 8.97841 41.8108 9.10687 41.1179 9.10687H40.5912C40.5632 9.2491 40.4809 9.46778 40.4809 9.60848C40.4809 9.95715 41.1195 9.68494 41.1195 10.2401C41.1195 10.3303 41.1047 10.3945 41.0636 10.4985L40.2966 13.1916C40.2126 13.5127 40.1073 13.8889 40.0892 14.2101C39.9805 16.1584 41.7763 16.5407 42.5729 16.611C43.4897 16.6921 44.7835 16.5284 45.4715 16.3006C45.6953 16.2272 45.8879 16.1538 46.0739 16.0727V15.5895H46.0722Z" fill="#FFCE09"/>
<path d="M40.6405 20.5412H41.9622V20.9602H40.0809V18.703H41.9161V19.122H40.6389V20.5412H40.6405ZM40.5994 19.6099H41.768V20.0197H40.5994V19.6099Z" fill="white"/>
<path d="M42.4116 20.9602V18.703H42.8757L44.3094 20.3286H44.0839V18.703H44.6386V20.9602H44.1728L42.7391 19.3361H42.9646V20.9602H42.4099H42.4116Z" fill="white"/>
<path d="M46.3866 20.9985C46.194 20.9985 46.0179 20.9694 45.8549 20.9128C45.692 20.8562 45.5537 20.7752 45.4352 20.6697C45.3167 20.5642 45.2245 20.4403 45.1587 20.2996C45.0928 20.1589 45.0599 20.0014 45.0599 19.8316C45.0599 19.6619 45.0928 19.5059 45.1587 19.3637C45.2245 19.2215 45.3183 19.0991 45.4385 18.9936C45.5587 18.8881 45.7002 18.807 45.8615 18.7504C46.0228 18.6939 46.2022 18.6648 46.3965 18.6648C46.6121 18.6648 46.8047 18.6984 46.9775 18.7642C47.1503 18.8315 47.2952 18.9278 47.4137 19.0548L47.0565 19.3637C46.966 19.2765 46.8688 19.2107 46.7652 19.1695C46.6615 19.1282 46.5462 19.1068 46.4211 19.1068C46.3059 19.1068 46.1989 19.1251 46.1018 19.1603C46.0047 19.1955 45.9208 19.2459 45.85 19.3101C45.7792 19.3744 45.7249 19.4508 45.687 19.5395C45.6492 19.6282 45.6294 19.7261 45.6294 19.8332C45.6294 19.9402 45.6492 20.032 45.687 20.1222C45.7249 20.2109 45.7792 20.2889 45.85 20.3531C45.9208 20.4173 46.0031 20.4678 46.1002 20.5045C46.1973 20.5412 46.3026 20.5596 46.4179 20.5596C46.5331 20.5596 46.6368 20.5427 46.7421 20.5076C46.8474 20.4739 46.9495 20.4158 47.0499 20.3363L47.3692 20.714C47.2343 20.8088 47.0812 20.8807 46.9083 20.9281C46.7355 20.9755 46.5611 21 46.3882 21L46.3866 20.9985ZM46.8557 20.6437V19.7965H47.3692V20.7125L46.8557 20.6452V20.6437Z" fill="white"/>
<path d="M47.57 20.9602L48.6498 18.703H49.2045L50.2941 20.9602H49.7048L48.8127 18.9676H49.0382L48.1461 20.9602H47.57ZM48.1148 20.477L48.2564 20.0809H49.5123L49.6588 20.477H48.1148Z" fill="white"/>
<path d="M51.6849 20.9985C51.4923 20.9985 51.3162 20.9694 51.1533 20.9128C50.9903 20.8562 50.8521 20.7752 50.7336 20.6697C50.615 20.5642 50.5229 20.4403 50.457 20.2996C50.3912 20.1589 50.3583 20.0014 50.3583 19.8316C50.3583 19.6619 50.3912 19.5059 50.457 19.3637C50.5229 19.2215 50.6167 19.0991 50.7369 18.9936C50.857 18.8881 50.9986 18.807 51.1599 18.7504C51.3212 18.6939 51.5006 18.6648 51.6948 18.6648C51.9104 18.6648 52.103 18.6984 52.2758 18.7642C52.4487 18.8315 52.5935 18.9278 52.712 19.0548L52.3548 19.3637C52.2643 19.2765 52.1672 19.2107 52.0635 19.1695C51.9598 19.1282 51.8446 19.1068 51.7195 19.1068C51.6043 19.1068 51.4973 19.1251 51.4002 19.1603C51.3031 19.1955 51.2191 19.2459 51.1483 19.3101C51.0776 19.3744 51.0232 19.4508 50.9854 19.5395C50.9475 19.6282 50.9278 19.7261 50.9278 19.8332C50.9278 19.9402 50.9475 20.032 50.9854 20.1222C51.0232 20.2109 51.0776 20.2889 51.1483 20.3531C51.2191 20.4173 51.3014 20.4678 51.3985 20.5045C51.4956 20.5412 51.601 20.5596 51.7162 20.5596C51.8314 20.5596 51.9351 20.5427 52.0405 20.5076C52.1458 20.4739 52.2478 20.4158 52.3482 20.3363L52.6676 20.714C52.5326 20.8088 52.3795 20.8807 52.2067 20.9281C52.0339 20.9755 51.8594 21 51.6866 21L51.6849 20.9985ZM52.154 20.6437V19.7965H52.6676V20.7125L52.154 20.6452V20.6437Z" fill="white"/>
<path d="M53.7457 20.5412H55.0674V20.9602H53.1861V18.703H55.0213V19.122H53.744V20.5412H53.7457ZM53.7045 19.6099H54.8732V20.0197H53.7045V19.6099Z" fill="white"/>
<path d="M55.5151 20.9602V18.703H55.9793L57.0129 20.295H56.766L57.78 18.703H58.2491V20.9602H57.7256L57.719 19.4554H57.8227L57.0047 20.7186H56.7545L55.9249 19.4554H56.0402V20.9602H55.5168H55.5151Z" fill="white"/>
<path d="M59.3881 20.5412H60.7098V20.9602H58.8284V18.703H60.6637V19.122H59.3864V20.5412H59.3881ZM59.3469 19.6099H60.5155V20.0197H59.3469V19.6099Z" fill="white"/>
<path d="M61.1575 20.9602V18.703H61.6216L63.0553 20.3286H62.8298V18.703H63.3844V20.9602H62.9186L61.485 19.3361H61.7105V20.9602H61.1558H61.1575Z" fill="white"/>
<path d="M64.4642 20.9602V19.1297H63.6873V18.7045H65.804V19.1297H65.0271V20.9602H64.4642Z" fill="white"/>
<path d="M67.85 20.9984C67.6738 20.9984 67.5158 20.9724 67.3759 20.9174C67.236 20.8639 67.1257 20.7905 67.0451 20.6987C66.9644 20.6069 66.9233 20.4999 66.9233 20.3791C66.9233 20.2674 66.9496 20.1665 67.0039 20.0763C67.0566 19.9861 67.1422 19.902 67.2574 19.8255C67.3726 19.749 67.5208 19.671 67.7018 19.5961C67.8319 19.5395 67.9323 19.4906 68.0047 19.4478C68.0771 19.4049 68.1281 19.3636 68.1594 19.3254C68.189 19.2872 68.2038 19.2459 68.2038 19.2031C68.2038 19.1495 68.1841 19.1052 68.1429 19.07C68.1018 19.0349 68.0425 19.0165 67.9635 19.0165C67.8796 19.0165 67.8154 19.0364 67.7693 19.0746C67.7232 19.1128 67.7002 19.1633 67.7002 19.223C67.7002 19.2551 67.7068 19.2872 67.7232 19.3178C67.738 19.3484 67.7644 19.3851 67.8022 19.4248C67.8401 19.4646 67.896 19.5166 67.9668 19.5808L69.2474 20.6804L68.956 21L67.5405 19.7781C67.4615 19.7108 67.399 19.6481 67.3496 19.5885C67.3002 19.5288 67.264 19.4692 67.2409 19.4095C67.2163 19.3499 67.2047 19.2902 67.2047 19.2306C67.2047 19.1205 67.236 19.0241 67.3002 18.94C67.3644 18.8559 67.4533 18.7917 67.5669 18.7458C67.6804 18.6999 67.8121 18.677 67.9602 18.677C68.1084 18.677 68.2269 18.6984 68.3306 18.7397C68.4343 18.781 68.5149 18.8406 68.5742 18.9186C68.6334 18.9966 68.6631 19.0884 68.6631 19.1954C68.6631 19.2872 68.6367 19.3744 68.5873 19.4539C68.538 19.5334 68.4573 19.6083 68.3487 19.6756C68.24 19.7429 68.1001 19.8148 67.929 19.8851C67.8137 19.9341 67.7199 19.983 67.6508 20.0304C67.5817 20.0778 67.5323 20.1237 67.501 20.1711C67.4714 20.217 67.4566 20.2705 67.4566 20.3302C67.4566 20.3821 67.4747 20.4296 67.5092 20.4724C67.5438 20.5152 67.5932 20.5488 67.659 20.5702C67.7249 20.5917 67.8006 20.6039 67.8911 20.6039C68.0327 20.6039 68.161 20.5733 68.2779 20.5121C68.3948 20.451 68.4952 20.3607 68.5775 20.2399C68.6614 20.1191 68.719 19.9738 68.7552 19.801L69.1898 19.9234C69.1437 20.1421 69.0581 20.3332 68.9314 20.4938C68.8046 20.6559 68.6499 20.7798 68.4655 20.8685C68.2812 20.9572 68.0771 21 67.8532 21L67.85 20.9984Z" fill="white"/>
<path d="M71.7739 20.9985C71.5814 20.9985 71.4052 20.9694 71.2423 20.9113C71.081 20.8532 70.9394 20.7721 70.8193 20.6666C70.6991 20.5611 70.6053 20.4372 70.5395 20.2965C70.4736 20.1543 70.4407 19.9999 70.4407 19.8316C70.4407 19.6634 70.4736 19.5059 70.5395 19.3652C70.6053 19.2245 70.6991 19.1006 70.8193 18.9966C70.9394 18.8911 71.0793 18.8101 71.2406 18.752C71.402 18.6939 71.5781 18.6648 71.769 18.6648C71.9599 18.6648 72.1377 18.6939 72.2974 18.7504C72.4587 18.807 72.5986 18.8881 72.7187 18.9936C72.8389 19.0991 72.9327 19.223 72.9985 19.3637C73.0644 19.5059 73.0973 19.6619 73.0973 19.8316C73.0973 20.0014 73.0644 20.1543 72.9985 20.2981C72.9327 20.4403 72.8389 20.5657 72.7187 20.6697C72.5986 20.7752 72.4587 20.8562 72.2974 20.9128C72.1361 20.9694 71.9616 20.9985 71.7723 20.9985H71.7739ZM71.7706 20.5565C71.8793 20.5565 71.9797 20.5382 72.0702 20.503C72.1624 20.4678 72.2414 20.4173 72.3122 20.3516C72.3813 20.2858 72.4356 20.2094 72.4735 20.1222C72.5113 20.035 72.5311 19.9387 72.5311 19.8301C72.5311 19.7215 72.5113 19.6252 72.4735 19.538C72.4356 19.4508 72.3813 19.3744 72.3122 19.3086C72.243 19.2429 72.1624 19.1924 72.0702 19.1572C71.9797 19.122 71.8793 19.1037 71.7706 19.1037C71.662 19.1037 71.5616 19.122 71.4678 19.1572C71.3756 19.1924 71.295 19.2429 71.2258 19.3086C71.1583 19.3744 71.104 19.4508 71.0662 19.538C71.0283 19.6252 71.0086 19.7231 71.0086 19.8301C71.0086 19.9372 71.0283 20.035 71.0662 20.1222C71.104 20.2094 71.1583 20.2858 71.2258 20.3516C71.295 20.4173 71.374 20.4678 71.4678 20.503C71.56 20.5382 71.6604 20.5565 71.7706 20.5565Z" fill="white"/>
<path d="M73.5236 20.9602V18.703H74.5754C74.7926 18.703 74.9803 18.7351 75.1383 18.8009C75.2963 18.8666 75.4164 18.9599 75.502 19.0823C75.5876 19.2046 75.6304 19.3499 75.6304 19.5181C75.6304 19.6863 75.5876 19.8331 75.502 19.9555C75.4164 20.0763 75.2946 20.1711 75.1383 20.2369C74.9803 20.3042 74.7943 20.3363 74.5754 20.3363H73.833L74.0898 20.1008V20.9587H73.5236V20.9602ZM74.0898 20.1604L73.833 19.9127H74.5441C74.7153 19.9127 74.8453 19.879 74.9325 19.8102C75.0198 19.7414 75.0642 19.645 75.0642 19.5196C75.0642 19.3942 75.0198 19.2994 74.9325 19.2306C74.8437 19.1633 74.7153 19.1297 74.5441 19.1297H73.833L74.0898 18.8819V20.1619V20.1604Z" fill="white"/>
<path d="M76.4666 20.9602V19.1297H75.6897V18.7045H77.8064V19.1297H77.0295V20.9602H76.4682H76.4666Z" fill="white"/>
<path d="M78.1076 20.9602V18.703H78.6738V20.9602H78.1076Z" fill="white"/>
<path d="M79.245 20.9602V18.703H79.7091L80.7428 20.295H80.4959L81.5098 18.703H81.9789V20.9602H81.4555L81.4489 19.4554H81.5526L80.7346 20.7186H80.4844L79.6548 19.4554H79.7684V20.9602H79.245Z" fill="white"/>
<path d="M82.5583 20.9602V18.703H83.1245V20.9602H82.5583Z" fill="white"/>
<path d="M83.5409 20.9602V20.6222L85.0437 18.94L85.1128 19.1297H83.5689V18.7045H85.6132V19.0425L84.1137 20.7247L84.0446 20.5351H85.6642V20.9602H83.5409Z" fill="white"/>
<path d="M85.7054 20.9602L86.7851 18.703H87.3398L88.4295 20.9602H87.8402L86.9481 18.9676H87.1736L86.2815 20.9602H85.7054ZM86.2502 20.477L86.3917 20.0809H87.6476L87.7941 20.477H86.2502Z" fill="white"/>
<path d="M89.0648 20.9602V19.1297H88.2879V18.7045H90.4046V19.1297H89.6277V20.9602H89.0664H89.0648Z" fill="white"/>
<path d="M90.7058 20.9602V18.703H91.272V20.9602H90.7058Z" fill="white"/>
<path d="M93.0233 20.9985C92.8308 20.9985 92.6546 20.9694 92.4917 20.9113C92.3304 20.8532 92.1888 20.7721 92.0687 20.6666C91.9485 20.5611 91.8547 20.4372 91.7889 20.2965C91.723 20.1543 91.6901 19.9999 91.6901 19.8316C91.6901 19.6634 91.723 19.5059 91.7889 19.3652C91.8547 19.2245 91.9485 19.1006 92.0687 18.9966C92.1888 18.8911 92.3287 18.8101 92.49 18.752C92.6513 18.6939 92.8275 18.6648 93.0184 18.6648C93.2093 18.6648 93.3871 18.6939 93.5467 18.7504C93.7081 18.807 93.848 18.8881 93.9681 18.9936C94.0883 19.0991 94.1821 19.223 94.2479 19.3637C94.3138 19.5059 94.3467 19.6619 94.3467 19.8316C94.3467 20.0014 94.3138 20.1543 94.2479 20.2981C94.1821 20.4403 94.0883 20.5657 93.9681 20.6697C93.848 20.7752 93.7081 20.8562 93.5467 20.9128C93.3854 20.9694 93.211 20.9985 93.0217 20.9985H93.0233ZM93.02 20.5565C93.1287 20.5565 93.2291 20.5382 93.3196 20.503C93.4118 20.4678 93.4908 20.4173 93.5616 20.3516C93.6307 20.2858 93.685 20.2094 93.7229 20.1222C93.7607 20.035 93.7805 19.9387 93.7805 19.8301C93.7805 19.7215 93.7607 19.6252 93.7229 19.538C93.685 19.4508 93.6307 19.3744 93.5616 19.3086C93.4924 19.2429 93.4118 19.1924 93.3196 19.1572C93.2291 19.122 93.1287 19.1037 93.02 19.1037C92.9114 19.1037 92.811 19.122 92.7172 19.1572C92.625 19.1924 92.5444 19.2429 92.4752 19.3086C92.4077 19.3744 92.3534 19.4508 92.3156 19.538C92.2777 19.6252 92.258 19.7231 92.258 19.8301C92.258 19.9372 92.2777 20.035 92.3156 20.1222C92.3534 20.2094 92.4077 20.2858 92.4752 20.3516C92.5444 20.4173 92.6234 20.4678 92.7172 20.503C92.8094 20.5382 92.9098 20.5565 93.02 20.5565Z" fill="white"/>
<path d="M94.7714 20.9602V18.703H95.2355L96.6692 20.3286H96.4437V18.703H96.9984V20.9602H96.5326L95.0989 19.3361H95.3244V20.9602H94.7697H94.7714Z" fill="white"/>
</svg>
